<svg width="225" height="42" viewBox="0 0 225 42" fill="none" xmlns="http://www.w3.org/2000/svg">
<path d="M8.4774 42L10.7866 35.1125H29V32.8448H14.5V32.4651L28.9272 28.5942L28.3863 26.4109L14.5104 30.556V30.1763L27.7726 22.3712L26.722 20.4093L14.5104 27.8769V27.4972L25.5154 16.0743L24.0176 14.4922L14.5104 24.8287V24.449L22.4885 10.1361L20.689 8.97589L14.5104 19.8609V19.4812L18.7023 4.88348L16.674 4.29282L14.5 12.2245V0H12.378V19.0909C12.378 26.5585 6.86514 32.6339 0 32.8343L8.48781 42H8.4774Z" fill="url(#paint0_linear_3326_9116)"/>
<path d="M39 36.5H41V5.5H39V36.5Z" fill="white"/>
<path d="M64.9232 20.4034C66.1477 18.857 66.7719 16.9089 66.7719 14.632C66.7719 11.8802 65.9316 9.63983 64.2749 7.9839C62.6303 6.34014 60.3974 5.5 57.6723 5.5H47V36.5H49.581V23.7518H57.6363L64.0708 36.5H67L60.2533 23.2526C62.1861 22.8386 63.7587 21.8767 64.9352 20.3912L64.9232 20.4034ZM49.581 8.11783H57.5522C59.569 8.11783 61.1897 8.71445 62.3661 9.89552C63.5426 11.0644 64.1429 12.6595 64.1429 14.632C64.1429 16.6045 63.5426 18.1874 62.3421 19.3684C61.1417 20.5495 59.521 21.1461 57.5042 21.1461H49.569V8.13001L49.581 8.11783Z" fill="white"/>
<path d="M70 36.5H73V5.5H70V36.5Z" fill="white"/>
<path d="M96.6397 23.3441C95.7288 22.2319 94.5749 21.3947 93.2024 20.8565C91.8421 20.3302 90.1903 19.8997 88.2713 19.5768C86.4008 19.2419 84.919 18.8951 83.8502 18.5482C82.8057 18.2133 81.9433 17.6752 81.251 16.9336C80.583 16.2041 80.2429 15.1875 80.2429 13.9078C80.2429 12.066 80.8866 10.6188 82.1741 9.59028C83.4737 8.54977 85.247 8.02353 87.4575 8.02353C89.668 8.02353 91.3077 8.59761 92.6559 9.7338C94.004 10.87 94.8057 12.4128 95.0364 14.3144L95.0607 14.5058L97.6235 14.4579L97.5992 14.2307C97.3806 11.6115 96.336 9.48264 94.5142 7.89197C92.6923 6.31327 90.3239 5.5 87.4453 5.5C85.5142 5.5 83.7895 5.84684 82.3077 6.55247C80.8138 7.2581 79.6599 8.26273 78.8462 9.54244C78.0324 10.8341 77.6316 12.341 77.6316 14.0394C77.6316 15.8812 78.0688 17.3642 78.9433 18.4406C79.8057 19.505 80.9109 20.3063 82.2227 20.8206C83.5101 21.3229 85.1377 21.7535 87.0445 22.1003C88.8543 22.4113 90.3603 22.7701 91.5142 23.1408C92.6437 23.5116 93.5911 24.0976 94.3198 24.863C95.0243 25.6165 95.3887 26.669 95.3887 27.9726C95.3887 29.8144 94.7085 31.2735 93.3603 32.326C92 33.3904 90.1417 33.9406 87.8583 33.9406C85.5749 33.9406 83.5344 33.2828 82.0526 31.9911C80.5709 30.7114 79.7571 28.9414 79.6235 26.7527V26.5494H77V26.7766C77.0972 28.6902 77.5951 30.4124 78.4939 31.8835C79.3927 33.3546 80.668 34.5027 82.2591 35.304C83.8502 36.1053 85.7085 36.5 87.8097 36.5C89.9109 36.5 91.6113 36.1292 93.1296 35.4116C94.6599 34.6821 95.8624 33.6535 96.7126 32.338C97.5628 31.0224 98 29.4915 98 27.8052C98 25.9633 97.5385 24.4564 96.6275 23.3322L96.6397 23.3441Z" fill="white"/>
<path d="M117.967 6.62023V7.03554H113.202V19.8443H112.765V7.03554H108V6.62023H117.967Z" fill="white"/>
<path d="M119.803 6.63112H127.661V7.02456H120.23V12.8606H126.503V13.2541H120.23V19.4289H127.924V19.8442H119.803V6.63112Z" fill="white"/>
<path d="M129.683 9.7459C130.175 8.71858 130.863 7.92076 131.76 7.35246C132.656 6.78415 133.694 6.5 134.896 6.5C136.23 6.5 137.344 6.8388 138.24 7.50546C139.137 8.18306 139.749 9.15574 140.077 10.4235H139.639C139.311 9.27596 138.743 8.40164 137.924 7.81148C137.104 7.21038 136.087 6.9153 134.885 6.9153C133.792 6.9153 132.831 7.18852 131.989 7.72404C131.148 8.25956 130.514 9.00273 130.066 9.96448C129.617 10.9262 129.388 12.0191 129.388 13.2541C129.388 14.4891 129.617 15.5601 130.066 16.5219C130.514 17.4836 131.158 18.2268 131.989 18.7623C132.82 19.2978 133.781 19.5601 134.885 19.5601C136.109 19.5601 137.126 19.265 137.924 18.6639C138.721 18.0628 139.29 17.1776 139.607 16.0082H140.044C139.727 17.2978 139.126 18.2705 138.251 18.9481C137.366 19.6257 136.251 19.9536 134.907 19.9536C133.705 19.9536 132.667 19.6694 131.77 19.1011C130.874 18.5328 130.186 17.7459 129.694 16.7295C129.202 15.7131 128.962 14.5546 128.962 13.2432C128.962 11.9317 129.202 10.7623 129.694 9.73497L129.683 9.7459Z" fill="white"/>
<path d="M142.514 6.59834H142.951V12.8716H151.355V6.59834H151.792V19.8442H151.355V13.265H142.951V19.8442H142.514V6.59834Z" fill="white"/>
<path d="M154.667 19.8443V6.62023H155.104L163.628 19.0683V6.62023H164.066V19.8443H163.617L155.115 7.37433V19.8443H154.667Z" fill="white"/>
<path d="M177.814 16.7076C177.301 17.724 176.579 18.5219 175.672 19.1011C174.765 19.6803 173.716 19.9645 172.546 19.9645C171.377 19.9645 170.328 19.6803 169.421 19.1011C168.503 18.5328 167.792 17.735 167.279 16.7076C166.765 15.6913 166.503 14.5328 166.503 13.2322C166.503 11.9317 166.765 10.7732 167.279 9.75683C167.792 8.74044 168.514 7.94262 169.421 7.36339C170.328 6.79508 171.377 6.5 172.546 6.5C173.716 6.5 174.765 6.78415 175.672 7.36339C176.59 7.94262 177.301 8.72951 177.814 9.75683C178.328 10.7842 178.59 11.9317 178.59 13.2322C178.59 14.5328 178.328 15.6913 177.814 16.7076ZM167.639 16.5C168.109 17.4617 168.776 18.2049 169.628 18.7404C170.481 19.276 171.454 19.5382 172.546 19.5382C173.639 19.5382 174.601 19.276 175.443 18.7404C176.295 18.2049 176.962 17.4617 177.432 16.5C177.913 15.5383 178.153 14.4563 178.153 13.2322C178.153 12.0082 177.913 10.9153 177.432 9.96448C176.951 9.00273 176.284 8.25956 175.443 7.72404C174.601 7.18852 173.628 6.9153 172.546 6.9153C171.464 6.9153 170.481 7.18852 169.628 7.72404C168.776 8.25956 168.12 9.00273 167.639 9.96448C167.169 10.9262 166.929 12.0082 166.929 13.2322C166.929 14.4563 167.169 15.5383 167.639 16.5Z" fill="white"/>
<path d="M181.027 19.8443V6.62023H181.464V19.429H188.098V19.8443H181.027Z" fill="white"/>
<path d="M199.355 16.7076C198.842 17.724 198.12 18.5219 197.213 19.1011C196.306 19.6803 195.257 19.9645 194.087 19.9645C192.918 19.9645 191.869 19.6803 190.962 19.1011C190.044 18.5328 189.333 17.735 188.82 16.7076C188.306 15.6913 188.044 14.5328 188.044 13.2322C188.044 11.9317 188.306 10.7732 188.82 9.75683C189.333 8.74044 190.055 7.94262 190.962 7.36339C191.869 6.79508 192.918 6.5 194.087 6.5C195.257 6.5 196.306 6.78415 197.213 7.36339C198.131 7.94262 198.842 8.72951 199.355 9.75683C199.869 10.7842 200.131 11.9317 200.131 13.2322C200.131 14.5328 199.869 15.6913 199.355 16.7076ZM189.18 16.5C189.65 17.4617 190.317 18.2049 191.169 18.7404C192.022 19.276 192.995 19.5382 194.087 19.5382C195.18 19.5382 196.142 19.276 196.984 18.7404C197.836 18.2049 198.503 17.4617 198.973 16.5C199.454 15.5383 199.694 14.4563 199.694 13.2322C199.694 12.0082 199.454 10.9153 198.973 9.96448C198.492 9.00273 197.825 8.25956 196.984 7.72404C196.142 7.18852 195.169 6.9153 194.087 6.9153C193.005 6.9153 192.022 7.18852 191.169 7.72404C190.317 8.25956 189.661 9.00273 189.18 9.96448C188.71 10.9262 188.47 12.0082 188.47 13.2322C188.47 14.4563 188.71 15.5383 189.18 16.5Z" fill="white"/>
<path d="M202.863 9.73497C203.344 8.71858 204.033 7.92076 204.918 7.35246C205.803 6.78415 206.842 6.5 208.022 6.5C209.355 6.5 210.481 6.8388 211.388 7.50546C212.295 8.18306 212.907 9.15574 213.235 10.4235H212.787C212.459 9.27596 211.891 8.40164 211.071 7.81148C210.251 7.21038 209.235 6.9153 208.033 6.9153C206.94 6.9153 205.978 7.18852 205.148 7.72404C204.317 8.25956 203.683 9.00273 203.235 9.96448C202.787 10.9262 202.568 12.0191 202.568 13.2541C202.568 14.4891 202.787 15.5601 203.235 16.5219C203.672 17.4836 204.295 18.2268 205.104 18.7623C205.913 19.2978 206.831 19.5601 207.88 19.5601C208.929 19.5601 209.902 19.3197 210.689 18.8388C211.475 18.3579 212.077 17.724 212.47 16.9153C212.874 16.1175 213.071 15.2322 213.071 14.2814V13.582H208.383V13.1885H213.508V19.8443H213.126L213.093 15.9317C212.82 17.1011 212.23 18.0628 211.322 18.8169C210.426 19.571 209.268 19.9536 207.858 19.9536C206.732 19.9536 205.738 19.6694 204.874 19.1011C204 18.5328 203.333 17.7459 202.852 16.7295C202.372 15.7131 202.131 14.5546 202.131 13.2432C202.131 11.9317 202.372 10.7514 202.863 9.72404V9.73497Z" fill="white"/>
<path d="M214.131 6.59834H214.645L219.497 14.5L224.35 6.59834H224.863L219.705 14.9918V19.8442H219.268V14.9918L214.131 6.59834Z" fill="white"/>
<path d="M109.027 32.5437C109.093 33.6148 109.497 34.4672 110.262 35.112C111.027 35.7568 112.011 36.0738 113.224 36.0738C114.437 36.0738 115.464 35.7896 116.197 35.2213C116.929 34.653 117.301 33.8771 117.301 32.8935C117.301 32.2159 117.115 31.6694 116.732 31.265C116.35 30.8607 115.869 30.5656 115.29 30.3689C114.699 30.1721 113.967 29.9973 113.093 29.8552C112.164 29.6913 111.41 29.5164 110.852 29.3306C110.295 29.1448 109.814 28.8279 109.432 28.4017C109.049 27.9754 108.852 27.3634 108.852 26.5874C108.852 25.4836 109.246 24.6093 110.033 23.9754C110.82 23.3415 111.891 23.0246 113.235 23.0246C114.448 23.0246 115.432 23.3415 116.208 23.9754C116.984 24.6093 117.432 25.4618 117.563 26.5328H117.126C116.995 25.5711 116.59 24.817 115.902 24.2596C115.213 23.7022 114.317 23.4181 113.235 23.4181C112.011 23.4181 111.049 23.7022 110.339 24.2596C109.628 24.817 109.279 25.5929 109.279 26.5765C109.279 27.2541 109.454 27.7896 109.803 28.1612C110.153 28.5437 110.59 28.806 111.115 28.97C111.639 29.1339 112.35 29.2978 113.235 29.4618C114.142 29.6148 114.907 29.8006 115.541 30.0191C116.175 30.2377 116.689 30.5765 117.104 31.0355C117.508 31.4946 117.716 32.1066 117.716 32.8825C117.716 33.9754 117.311 34.8497 116.492 35.4946C115.672 36.1394 114.579 36.4672 113.202 36.4672C111.825 36.4672 110.765 36.1066 109.934 35.3962C109.104 34.6858 108.656 33.735 108.59 32.5328H109.005L109.027 32.5437Z" fill="white"/>
<path d="M131.049 33.2431C130.536 34.2595 129.814 35.0573 128.907 35.6366C128 36.2158 126.951 36.5 125.781 36.5C124.612 36.5 123.563 36.2158 122.656 35.6366C121.738 35.0683 121.027 34.2705 120.514 33.2431C120 32.2267 119.738 31.0683 119.738 29.7677C119.738 28.4672 120 27.3087 120.514 26.2923C121.027 25.2759 121.749 24.4781 122.656 23.8989C123.563 23.3306 124.612 23.0355 125.781 23.0355C126.951 23.0355 128 23.3196 128.907 23.8989C129.825 24.4781 130.536 25.265 131.049 26.2923C131.563 27.3196 131.825 28.4672 131.825 29.7677C131.825 31.0683 131.563 32.2267 131.049 33.2431ZM120.874 33.0355C121.344 33.9972 122.011 34.7404 122.863 35.2759C123.716 35.8114 124.689 36.0737 125.781 36.0737C126.874 36.0737 127.836 35.8114 128.678 35.2759C129.53 34.7404 130.197 33.9972 130.667 33.0355C131.148 32.0737 131.388 30.9918 131.388 29.7677C131.388 28.5437 131.148 27.4508 130.667 26.5C130.186 25.5382 129.519 24.7951 128.678 24.2595C127.836 23.724 126.863 23.4508 125.781 23.4508C124.699 23.4508 123.716 23.724 122.863 24.2595C122.011 24.7951 121.355 25.5382 120.874 26.5C120.404 27.4617 120.164 28.5437 120.164 29.7677C120.164 30.9918 120.404 32.0737 120.874 33.0355Z" fill="white"/>
<path d="M134.251 36.3798V23.1557H134.689V35.9645H141.322V36.3798H134.251Z" fill="white"/>
<path d="M142.59 23.1557V31.112C142.59 32.7841 142.929 34.03 143.607 34.8497C144.284 35.6694 145.344 36.0738 146.776 36.0738C148.208 36.0738 149.311 35.6694 150 34.8497C150.689 34.03 151.027 32.7841 151.027 31.112V23.1557H151.464V31.0901C151.464 32.9044 151.082 34.2595 150.317 35.1557C149.552 36.0519 148.372 36.5 146.776 36.5C145.18 36.5 144.022 36.0519 143.268 35.1557C142.514 34.2595 142.142 32.9044 142.142 31.0901V23.1557H142.59Z" fill="white"/>
<path d="M163.202 23.1557V23.571H158.437V36.3798H158V23.571H153.235V23.1557H163.202Z" fill="white"/>
<path d="M165.038 23.1557H165.475V36.3798H165.038V23.1557Z" fill="white"/>
<path d="M179.224 33.2431C178.71 34.2595 177.989 35.0573 177.082 35.6366C176.175 36.2158 175.126 36.5 173.956 36.5C172.787 36.5 171.738 36.2158 170.831 35.6366C169.913 35.0683 169.202 34.2705 168.689 33.2431C168.175 32.2267 167.913 31.0683 167.913 29.7677C167.913 28.4672 168.175 27.3087 168.689 26.2923C169.202 25.2759 169.923 24.4781 170.831 23.8989C171.738 23.3306 172.787 23.0355 173.956 23.0355C175.126 23.0355 176.175 23.3196 177.082 23.8989C178 24.4781 178.71 25.265 179.224 26.2923C179.738 27.3196 180 28.4672 180 29.7677C180 31.0683 179.738 32.2267 179.224 33.2431ZM169.049 33.0355C169.519 33.9972 170.186 34.7404 171.038 35.2759C171.891 35.8114 172.863 36.0737 173.956 36.0737C175.049 36.0737 176.011 35.8114 176.852 35.2759C177.705 34.7404 178.372 33.9972 178.842 33.0355C179.322 32.0737 179.563 30.9918 179.563 29.7677C179.563 28.5437 179.322 27.4508 178.842 26.5C178.361 25.5382 177.694 24.7951 176.852 24.2595C176.011 23.724 175.038 23.4508 173.956 23.4508C172.874 23.4508 171.891 23.724 171.038 24.2595C170.186 24.7951 169.53 25.5382 169.049 26.5C168.579 27.4617 168.339 28.5437 168.339 29.7677C168.339 30.9918 168.579 32.0737 169.049 33.0355Z" fill="white"/>
<path d="M182.437 36.3798V23.1557H182.874L191.399 35.6038V23.1557H191.836V36.3798H191.388L182.885 23.9098V36.3798H182.437Z" fill="white"/>
<path d="M194.689 32.5437C194.754 33.6148 195.158 34.4672 195.923 35.112C196.689 35.7568 197.672 36.0738 198.885 36.0738C200.098 36.0738 201.126 35.7896 201.858 35.2213C202.59 34.653 202.962 33.8771 202.962 32.8935C202.962 32.2159 202.776 31.6694 202.393 31.265C202.011 30.8607 201.53 30.5656 200.951 30.3689C200.361 30.1721 199.628 29.9973 198.754 29.8552C197.825 29.6913 197.071 29.5164 196.514 29.3306C195.956 29.1448 195.475 28.8279 195.093 28.4017C194.71 27.9754 194.514 27.3634 194.514 26.5874C194.514 25.4836 194.907 24.6093 195.694 23.9754C196.481 23.3415 197.552 23.0246 198.896 23.0246C200.109 23.0246 201.093 23.3415 201.869 23.9754C202.645 24.6093 203.093 25.4618 203.224 26.5328H202.787C202.656 25.5711 202.251 24.817 201.563 24.2596C200.874 23.7022 199.978 23.4181 198.896 23.4181C197.672 23.4181 196.71 23.7022 196.011 24.2596C195.301 24.817 194.951 25.5929 194.951 26.5765C194.951 27.2541 195.126 27.7896 195.475 28.1612C195.825 28.5328 196.262 28.806 196.787 28.97C197.311 29.1339 198.022 29.2978 198.907 29.4618C199.814 29.6148 200.579 29.8006 201.213 30.0191C201.847 30.2377 202.361 30.5765 202.776 31.0355C203.18 31.4946 203.388 32.1066 203.388 32.8825C203.388 33.9754 202.984 34.8497 202.164 35.4946C201.344 36.1394 200.251 36.4672 198.874 36.4672C197.497 36.4672 196.437 36.1066 195.607 35.3962C194.776 34.6858 194.328 33.735 194.262 32.5328H194.678L194.689 32.5437Z" fill="white"/>
<defs>
<linearGradient id="paint0_linear_3326_9116" x1="-0.0104017" y1="21" x2="29" y2="21" gradientUnits="userSpaceOnUse">
<stop stop-color="#F4D20E"/>
<stop offset="0.26" stop-color="#9ACA3D"/>
<stop offset="0.51" stop-color="#38B992"/>
<stop offset="0.8" stop-color="#1D86C7"/>
<stop offset="1" stop-color="#3E66AF"/>
</linearGradient>
</defs>
</svg>
