<svg width="240" height="68" viewBox="0 0 240 68" fill="none" xmlns="http://www.w3.org/2000/svg">
<path d="M67.9053 33.9527C67.9053 52.7017 52.7017 67.9053 33.9527 67.9053C15.2036 67.9053 0 52.7017 0 33.9527C0 15.2036 15.2036 0 33.9527 0C52.7017 0 67.9053 15.2036 67.9053 33.9527ZM19.819 19.8829C18.238 20.8411 17.2319 22.2305 16.8007 24.0511C16.4653 25.4565 16.5132 26.814 16.9444 28.1076L17.168 28.6346L28.2513 47.5273C29.2095 49.0445 30.5989 50.0506 32.4195 50.5457C34.1603 51.0088 35.8372 50.8172 37.4502 49.9388L37.7536 49.7472C38.9034 49.0126 39.7658 48.0703 40.3248 46.9364L51.1047 27.852C51.5199 26.5425 51.5518 25.185 51.1845 23.7956C50.6895 21.991 49.6514 20.6175 48.0384 19.6753L47.7669 19.5316C46.1539 18.6372 44.4611 18.4456 42.6884 18.9726C40.8837 19.4677 39.5263 20.4898 38.616 22.0549L35.4219 27.6444L34.304 29.6088L34.0006 30.1358L29.3852 22.1187C28.395 20.5696 27.0216 19.5635 25.2649 19.1004C23.4283 18.5893 21.7195 18.7969 20.1065 19.7392L19.8031 19.8989M20.7613 21.3362L20.9849 21.2244C22.1667 20.5696 23.4283 20.394 24.7858 20.7134C25.9356 21.0487 26.8619 21.6716 27.5486 22.5819L27.884 22.9971L38.6639 41.3628C39.3506 42.5606 39.5103 43.8222 39.143 45.1637V45.1957C38.8076 46.5052 38.041 47.5273 36.8752 48.262L36.6197 48.3738C35.39 49.0924 34.1124 49.2521 32.7868 48.8529C31.637 48.5654 30.6948 47.9585 29.9921 47.0323L29.7206 46.6649L18.9407 28.2673C18.2859 27.0695 18.1262 25.8079 18.4616 24.4664C18.7969 23.1089 19.5795 22.0708 20.7772 21.3681M43.0717 20.6175L43.1515 20.5856C44.477 20.2502 45.7387 20.4099 46.9205 21.0807L47.192 21.2244C48.3578 21.8952 49.1244 22.9013 49.5077 24.2587C49.875 25.5683 49.7312 26.814 49.1244 28.0277L48.9327 28.3311C48.246 29.497 47.2079 30.2476 45.8665 30.6149C44.5409 30.9982 43.2793 30.8704 42.0975 30.2316L41.8739 30.1198C40.6602 29.3692 39.8776 28.3471 39.5263 27.0056C39.159 25.6961 39.3027 24.4344 39.9096 23.2047L40.0533 22.9811C40.772 21.7674 41.7781 20.9849 43.0876 20.6335L43.0717 20.6175Z" fill="#01B8D1"/>
<path d="M116.742 15.2997L115.368 15.667C114.794 15.8267 114.314 16.2419 114.107 16.8168C113.101 19.5957 112.063 22.4863 110.977 25.4887C109.779 28.8264 108.565 32.1961 107.319 35.5659C106.09 38.9515 104.86 42.3053 103.646 45.5952C102.56 48.5656 101.49 51.4083 100.452 54.1552C100.229 54.7461 99.6857 55.1453 99.0629 55.1932C98.6636 55.2252 98.2484 55.2412 98.0248 55.2412C97.8172 55.2412 97.4339 55.2412 97.0506 55.2092C96.3958 55.1773 95.8369 54.7301 95.6293 54.1232C95.0543 52.4304 94.5433 50.8653 94.0801 49.428C93.5212 47.7192 92.8824 45.7708 92.1478 43.5669C91.4131 41.379 90.6466 39.1112 89.88 36.7956C89.1134 34.4639 88.3468 32.1482 87.5962 29.8326C86.8456 27.5169 86.143 25.3928 85.4882 23.4445C84.8494 21.5121 84.2904 19.8512 83.8273 18.4777C83.5877 17.7591 83.3801 17.1682 83.2204 16.6891C83.0128 16.0662 82.4858 15.6191 81.831 15.4753C81.6713 15.4434 81.5116 15.4115 81.3519 15.3795C81.0325 15.3156 80.6811 15.2518 80.3298 15.1879C80.0423 15.14 79.7868 14.9483 79.675 14.6768C79.6271 14.5491 79.5792 14.3894 79.5952 14.2297C79.5952 14.07 79.659 13.9262 79.7229 13.8304C79.8667 13.5749 80.1541 13.4312 80.4576 13.4312H95.9966C96.4597 13.4312 96.827 13.7985 96.843 14.2456C96.843 14.2456 96.843 14.2935 96.843 14.3095C96.843 14.3574 96.843 14.4213 96.827 14.5012C96.7791 14.8685 96.4757 15.1559 96.1084 15.2198C94.5273 15.4753 93.5052 17.0404 93.9364 18.5895C94.0322 18.9568 94.144 19.3242 94.2558 19.6915C94.6551 21.0809 95.1661 22.7098 95.757 24.5784L101.506 42.8163H101.89C101.89 42.8163 103.423 38.3926 104.189 36.2685C104.94 34.1445 105.706 32.0045 106.489 29.8645C107.256 27.7085 108.038 25.4887 108.805 23.2049C109.364 21.528 109.955 19.7713 110.577 17.9507C110.929 16.8967 110.274 15.7788 109.188 15.5552L107.655 15.2677C107.24 15.1879 106.92 14.8206 106.904 14.4053V14.3734C106.904 14.3734 106.904 14.2456 106.904 14.1977C106.984 13.7506 107.367 13.4312 107.815 13.4312H116.518C117.045 13.4312 117.461 13.8783 117.429 14.4053V14.4852C117.397 14.8844 117.125 15.2198 116.742 15.3156V15.2997ZM118.259 22.3425C119.201 23.2049 120.303 23.6361 121.597 23.6361C122.89 23.6361 124.056 23.2049 124.998 22.3425C125.941 21.4961 126.42 20.4261 126.42 19.1485C126.42 17.8709 125.941 16.8168 124.998 15.9544C124.056 15.108 122.922 14.6768 121.597 14.6768C120.271 14.6768 119.201 15.108 118.259 15.9544C117.317 16.8009 116.854 17.8709 116.854 19.1485C116.854 20.4261 117.317 21.4801 118.259 22.3425ZM148.73 39.8299C147.948 39.0953 147.021 38.4086 145.935 37.7857C144.849 37.1629 143.684 36.556 142.422 35.9651C141.464 35.518 140.617 35.1187 139.883 34.7514C139.148 34.4 138.525 34.0327 138.014 33.6335C137.503 33.2502 137.104 32.803 136.848 32.292C136.593 31.7809 136.465 31.1741 136.465 30.4235C136.465 29.1618 136.96 28.1876 137.918 27.5488C138.893 26.894 140.026 26.5746 141.32 26.5746C143.077 26.5746 144.578 27.0697 145.76 28.0599C146.91 29.0181 147.884 30.1999 148.698 31.6053C148.778 31.733 148.906 31.8129 149.05 31.8129C149.257 31.8129 149.449 31.6532 149.465 31.4455L149.529 30.9026V30.8706C149.529 30.5991 149.577 27.4051 149.561 26.7982C149.561 26.7982 149.561 26.7982 149.561 26.7822C149.561 26.1914 149.161 25.6803 148.618 25.4887C147.948 25.2331 146.973 24.9137 146.191 24.786C144.849 24.5624 143.316 24.4506 141.576 24.4506C140.106 24.4506 138.669 24.6582 137.264 25.0575C135.858 25.4567 134.613 26.0636 133.511 26.8621C132.409 27.6606 131.53 28.6508 130.86 29.8645C130.189 31.0782 129.869 32.5156 129.869 34.1765C129.869 35.502 130.077 36.6518 130.476 37.658C130.876 38.6481 131.419 39.5105 132.073 40.2292C132.744 40.9478 133.479 41.5547 134.309 42.0817C135.14 42.5928 135.97 43.0399 136.832 43.4072C138.126 43.9981 139.228 44.5251 140.154 44.9883C141.065 45.4514 141.815 45.8986 142.39 46.3458C142.965 46.7929 143.38 47.272 143.668 47.7831C143.939 48.2941 144.083 48.901 144.083 49.6037C144.083 51.009 143.668 51.9992 142.837 52.5741C142.007 53.1491 140.809 53.4365 139.212 53.4365C138.078 53.4365 137.056 53.2129 136.162 52.7498C135.283 52.2867 134.501 51.7277 133.814 51.0889C133.127 50.4501 132.552 49.7634 132.041 49.0447C131.626 48.4378 131.259 47.9108 130.923 47.4477C130.812 47.288 130.62 47.1922 130.428 47.1922C130.093 47.1922 129.821 47.4637 129.821 47.799C129.821 49.1086 129.821 51.025 129.821 51.552C129.821 51.8235 129.774 51.9673 129.534 52.1908C129.294 52.4144 128.544 52.2547 127.985 52.0791C127.602 51.9673 127.362 51.6159 127.362 51.2167V31.5094C127.362 30.2957 127.362 29.0181 127.41 27.6766C127.41 27.2294 127.426 26.6705 127.442 26.1275C127.458 25.0894 126.484 24.3069 125.478 24.5464C124.408 24.8019 123.098 25.1054 122.14 25.297C120.16 25.6803 118.083 26.1115 115.864 26.5906C115.832 26.5906 115.8 26.6705 115.768 26.8142C115.768 26.9579 115.752 27.1176 115.752 27.2773C115.752 27.437 115.752 27.6766 115.8 27.98C116.391 28.1237 116.886 28.2515 117.269 28.3314C118.067 28.539 118.626 29.2417 118.642 30.0561C118.658 30.8067 118.674 31.5254 118.69 32.2281C118.69 33.346 118.722 34.4799 118.722 35.6617V49.7953C118.722 50.2904 118.722 50.7535 118.722 51.1847C118.722 52.1749 117.988 52.9894 117.013 53.1491L115.911 53.3247C115.911 53.3247 115.848 53.4206 115.832 53.5803C115.816 53.74 115.8 53.9156 115.768 54.1073C115.768 54.2989 115.768 54.4586 115.768 54.6343C115.784 54.794 115.816 54.8738 115.864 54.8738H130.109C131.434 54.8738 132.6 54.81 134.038 55.1134C135.587 55.4328 137.327 55.5925 139.292 55.5925C140.985 55.5925 142.55 55.3689 144.019 54.9218C145.472 54.4906 146.734 53.8358 147.804 52.9894C148.874 52.1429 149.704 51.1049 150.295 49.8752C150.886 48.6455 151.174 47.2081 151.174 45.5952C151.174 44.3814 150.966 43.2954 150.519 42.3692C150.072 41.4269 149.465 40.5965 148.698 39.8459L148.73 39.8299ZM230.849 53.0692C230.753 53.0692 230.641 53.0373 230.53 53.0213C229.923 52.9255 229.492 52.3825 229.492 51.7756V33.2023C229.492 31.5094 229.332 30.0881 229.028 28.9382C228.725 27.8043 228.23 26.894 227.591 26.2233C226.952 25.5685 226.138 25.0894 225.148 24.8179C224.174 24.5464 223.04 24.4027 221.762 24.4027C219.702 24.4027 217.738 24.8658 215.869 25.7921C214 26.7024 212.483 27.8682 211.302 29.2736H211.078C210.599 27.3891 209.752 26.1115 208.539 25.4248C207.325 24.7381 205.696 24.4027 203.668 24.4027C201.64 24.4027 199.659 24.8658 197.839 25.7921C196.018 26.7024 194.517 27.8682 193.335 29.2736H193.127L193.191 26.1754C193.207 25.1693 192.297 24.3867 191.307 24.5784C190.764 24.6742 190.253 24.786 189.965 24.8499C189.199 25.0415 188.416 25.2012 187.618 25.3769C186.819 25.5366 185.989 25.7122 185.078 25.9039C184.168 26.0796 183.098 26.3031 181.836 26.5587C181.805 26.5587 181.773 26.6385 181.757 26.7822C181.757 26.926 181.725 27.0857 181.725 27.2454C181.725 27.4051 181.741 27.6446 181.789 27.9481C182.379 28.0918 182.859 28.2196 183.258 28.2994C183.338 28.3154 183.418 28.3473 183.497 28.3633C184.152 28.539 184.615 29.1458 184.631 29.8326C184.647 30.647 184.679 31.4455 184.695 32.1961C184.695 33.3141 184.711 34.4479 184.711 35.6297V49.7634C184.711 50.4661 184.711 51.1049 184.695 51.7117C184.695 52.3665 184.168 52.8935 183.513 52.9414H183.37C182.651 53.0053 181.932 52.8297 181.325 52.4464C181.262 52.4144 181.198 52.3665 181.134 52.3346C180.335 51.8555 179.84 50.9931 179.808 50.0668C179.792 49.3801 179.776 48.6934 179.744 47.9747C179.744 47.2561 179.728 46.5693 179.728 45.9305V26.6705C179.728 25.7921 179.01 25.0734 178.131 25.0734H167.958C167.958 25.0734 167.847 25.1533 167.815 25.313C167.815 25.4727 167.799 25.6484 167.799 25.84V26.3511C167.799 26.5267 167.799 26.6066 167.847 26.6066C168.517 26.6864 169.06 26.7503 169.539 26.8302H169.619C170.354 26.9579 170.897 27.5808 170.913 28.3314V28.4112C170.945 29.0181 170.945 29.6729 170.977 30.3755C170.977 31.0782 170.993 31.733 170.993 32.3559V48.8371C170.514 49.3481 169.891 49.8273 169.124 50.2425C168.342 50.6737 167.351 50.8813 166.138 50.8813C164.253 50.8813 163.008 50.3862 162.401 49.3961C161.794 48.4059 161.49 47.0644 161.49 45.3716V26.6864C161.49 25.8081 160.772 25.0894 159.893 25.0894H150.04C150.04 25.0894 149.928 25.1693 149.896 25.329C149.896 25.4887 149.864 25.6643 149.848 25.856C149.832 26.0476 149.832 26.2233 149.848 26.383C149.848 26.5587 149.896 26.6225 149.928 26.6225C150.583 26.7024 151.094 26.7663 151.445 26.8461C151.477 26.8461 151.493 26.8461 151.525 26.8621C152.228 27.0218 152.739 27.6446 152.739 28.3633C152.739 28.9702 152.739 29.609 152.755 30.2957C152.771 30.9824 152.787 31.6372 152.787 32.292V46.5214C152.787 49.6196 153.569 51.9034 155.134 53.3726C156.699 54.8419 158.951 55.5765 161.906 55.5765C162.752 55.5765 163.63 55.4488 164.525 55.1932C165.435 54.9377 166.281 54.5864 167.096 54.1392C167.91 53.708 168.645 53.197 169.332 52.622C169.651 52.3506 170.082 51.9513 170.466 51.584C170.769 51.2965 171.248 51.5041 171.264 51.9194L171.296 54.5385C171.296 54.9058 171.504 55.2252 171.839 55.3849C172.031 55.4807 172.238 55.4967 172.446 55.4488L176.439 54.5704C177.173 54.4107 177.94 54.3788 178.674 54.5065C179.633 54.6662 180.974 54.8579 181.789 54.8579H195.826C195.826 54.8579 195.89 54.778 195.906 54.6183C195.906 54.4426 195.938 54.2829 195.954 54.0913C195.97 53.8997 195.986 53.724 195.986 53.5643C195.986 53.4046 195.986 53.3088 195.938 53.3088C195.315 53.197 194.82 53.1331 194.469 53.0852C193.83 53.0213 193.351 52.4783 193.351 51.8395V31.9247C193.351 31.4296 193.591 30.9505 194.006 30.663C194.501 30.3276 195.06 30.0402 195.651 29.8006C196.513 29.4493 197.583 29.2736 198.877 29.2736C200.234 29.2736 201.224 29.6409 201.831 30.3755C202.438 31.1102 202.741 32.3878 202.741 34.1924V49.5877C202.741 50.3223 202.726 51.0729 202.694 51.8555C202.662 52.4464 202.23 52.9414 201.656 53.0532L200.154 53.3247C200.154 53.3247 200.09 53.4206 200.074 53.5803C200.058 53.74 200.043 53.9156 200.011 54.1073C200.011 54.2989 199.995 54.4586 199.995 54.6343C199.995 54.81 199.995 54.8738 200.043 54.8738H213.857C213.857 54.8738 213.937 54.794 213.969 54.6343C214 54.4586 214.032 54.2989 214.048 54.1073C214.048 53.9156 214.048 53.74 214.048 53.5803C214.032 53.4206 214 53.3247 213.969 53.3247C213.457 53.2129 213.026 53.1331 212.659 53.0852C212.595 53.0852 212.531 53.0692 212.467 53.0532C211.86 52.9414 211.429 52.4144 211.429 51.8076V33.2182C211.429 32.8509 211.429 32.4996 211.397 32.1642C211.397 32.1323 211.397 32.1003 211.397 32.0684C211.349 31.5094 211.637 30.9664 212.116 30.663C212.563 30.3755 213.074 30.12 213.649 29.8805C214.559 29.4972 215.661 29.3055 216.907 29.3055C218.312 29.3055 219.319 29.6729 219.925 30.4075C220.532 31.1421 220.836 32.4197 220.836 34.2244V49.6196C220.836 50.3543 220.82 51.1049 220.788 51.8874C220.756 52.4783 220.325 52.9734 219.75 53.0852L218.249 53.3567C218.249 53.3567 218.169 53.4525 218.137 53.6122C218.105 53.7719 218.073 53.9476 218.057 54.1392C218.057 54.3309 218.057 54.4906 218.057 54.6662C218.073 54.8259 218.105 54.9058 218.137 54.9058H232.175C232.175 54.9058 232.238 54.8259 232.254 54.6662C232.27 54.4906 232.286 54.3309 232.318 54.1392C232.318 53.9476 232.334 53.7719 232.334 53.6122C232.334 53.4525 232.334 53.3567 232.286 53.3567C231.695 53.2449 231.216 53.165 230.817 53.1171L230.849 53.0692ZM237.477 21.8155C237.477 21.9752 237.445 22.0391 237.429 22.0391L235.512 21.9752C235.241 21.4801 235.001 21.0489 234.794 20.6657C234.57 20.2824 234.347 19.8671 234.107 19.436H233.867C233.788 19.436 233.692 19.436 233.628 19.404V21.4642L234.251 21.544C234.251 21.544 234.267 21.6239 234.267 21.7676C234.267 21.9273 234.235 21.9912 234.219 21.9912H231.488C231.488 21.9912 231.456 21.9273 231.456 21.7676C231.456 21.6079 231.456 21.544 231.488 21.544L232.143 21.4642V16.4974L231.488 16.4176C231.488 16.4176 231.472 16.3377 231.472 16.178C231.472 16.0183 231.504 15.9385 231.52 15.9385H234.027C234.874 15.9385 235.528 16.0822 235.96 16.3697C236.407 16.6571 236.614 17.0404 236.614 17.5515C236.614 17.9188 236.518 18.2382 236.327 18.4937C236.119 18.7492 235.88 18.9409 235.608 19.0686V19.1006C235.816 19.4839 236.007 19.8512 236.183 20.1546C236.359 20.474 236.598 20.8413 236.87 21.2725C236.95 21.3843 237.03 21.4482 237.125 21.4801C237.221 21.5121 237.333 21.544 237.461 21.576C237.477 21.576 237.477 21.6558 237.477 21.7995V21.8155ZM235.177 17.7271C235.177 17.3119 235.065 17.0085 234.826 16.8328C234.586 16.6412 234.203 16.5453 233.628 16.5453V18.9089C234.059 18.9249 234.426 18.8451 234.73 18.6534C235.033 18.4618 235.177 18.1583 235.177 17.7271ZM240 19.1645C240 19.9949 239.856 20.7615 239.553 21.4642C239.249 22.1669 238.85 22.7737 238.323 23.2848C237.812 23.7958 237.189 24.1951 236.471 24.4825C235.752 24.77 234.985 24.9297 234.187 24.9297C233.388 24.9297 232.622 24.786 231.903 24.4985C231.2 24.227 230.594 23.8278 230.067 23.3167C229.555 22.8057 229.14 22.1988 228.837 21.4961C228.533 20.7934 228.39 20.0109 228.39 19.1645C228.39 18.318 228.549 17.5674 228.837 16.8648C229.124 16.1621 229.555 15.5552 230.083 15.0441C230.61 14.5331 231.232 14.1338 231.935 13.8464C232.638 13.5589 233.388 13.3992 234.171 13.3992C234.953 13.3992 235.736 13.5429 236.439 13.8464C237.141 14.1338 237.764 14.5331 238.291 15.0441C238.818 15.5552 239.233 16.1621 239.537 16.8648C239.84 17.5674 239.984 18.334 239.984 19.1645H240ZM238.946 19.1645C238.946 18.4618 238.834 17.823 238.579 17.2321C238.339 16.6412 238.004 16.1301 237.573 15.683C237.141 15.2358 236.646 14.8844 236.071 14.6289C235.48 14.3734 234.858 14.2456 234.187 14.2456C233.516 14.2456 232.877 14.3734 232.302 14.6289C231.727 14.8844 231.232 15.2358 230.801 15.683C230.37 16.1301 230.051 16.6412 229.795 17.2321C229.555 17.823 229.428 18.4777 229.428 19.1645C229.428 19.8512 229.555 20.506 229.795 21.0969C230.035 21.6878 230.37 22.1988 230.801 22.646C231.232 23.0931 231.727 23.4445 232.302 23.7C232.877 23.9555 233.5 24.0833 234.187 24.0833C234.874 24.0833 235.496 23.9555 236.071 23.716C236.646 23.4764 237.157 23.141 237.573 22.6939C238.004 22.2627 238.339 21.7357 238.579 21.1448C238.818 20.5379 238.946 19.8831 238.946 19.1645Z" fill="#F5FAFF"/>
</svg>
